<?xml version="1.0" encoding="utf-8"?>
<!-- Generator: Adobe Illustrator 27.9.0, SVG Export Plug-In . SVG Version: 6.00 Build 0)  -->
<svg version="1.1" id="Layer_1" xmlns="http://www.w3.org/2000/svg" xmlns:xlink="http://www.w3.org/1999/xlink" x="0px" y="0px"
	 viewBox="0 0 80 40" style="enable-background:new 0 0 80 40;" xml:space="preserve">
<style type="text/css">
	.st0{fill:none;}
	.st1{fill:#EE1E3E;stroke:#EE1E38;stroke-width:0.6431;stroke-miterlimit:10;}
	.st2{fill:#C5375F;}
</style>
<line class="st0" x1="19.9" y1="0.3" x2="20.2" y2="40"/>
<path class="st1" d="M7.4,13.3C7.8,12.9,14,6,13.9,2.7c-0.1-3.3-6-1.1-6-1.1S1-0.6,0.9,2.7C0.8,5.9,7,12.9,7.4,13.3z"/>
<g>
	<path class="st2" d="M6.9,2.2c0.3,0,0.6-0.1,1.1-0.1c0.6,0,1,0.1,1.3,0.3c0.2,0.2,0.4,0.4,0.4,0.7c0,0.3-0.1,0.6-0.3,0.8
		C9,4.2,8.5,4.3,8,4.3c-0.2,0-0.3,0-0.5,0l-0.3,7.5L6.9,5.7L6.9,2.2L6.9,2.2z M7.5,3.9c0.1,0,0.3,0,0.5,0c0.7,0,0.8-0.2,0.8-0.7
		c0-0.5-0.1-0.7-0.7-0.7c-0.3,0-0.4,0-0.5,0L7.5,3.9L7.5,3.9z"/>
</g>
<g>
	<g>
		<path d="M15.2,1.9H16c0.6,0,1,0.2,1,0.8c0,0.6-0.4,0.9-1,0.9h-0.5v1.1h-0.3V1.9z M15.9,3.3c0.5,0,0.7-0.2,0.7-0.6
			c0-0.4-0.2-0.5-0.7-0.5h-0.4v1.1H15.9z"/>
		<path d="M17.8,2.6h0.3l0,0.5h0c0.2-0.3,0.5-0.5,0.9-0.5c0.1,0,0.3,0,0.4,0.1L19.3,3c-0.1,0-0.2-0.1-0.4-0.1
			c-0.3,0-0.6,0.2-0.8,0.6v1.2h-0.3V2.6z"/>
		<path d="M19.8,3.7c0-0.7,0.4-1.1,1-1.1s1,0.4,1,1.1c0,0.7-0.4,1.1-1,1.1S19.8,4.4,19.8,3.7z M21.4,3.7c0-0.5-0.2-0.8-0.6-0.8
			c-0.4,0-0.6,0.3-0.6,0.8c0,0.5,0.2,0.8,0.6,0.8C21.2,4.5,21.4,4.2,21.4,3.7z"/>
		<path d="M22.4,2.6h0.3l0,0.3h0c0.2-0.2,0.4-0.3,0.7-0.3c0.5,0,0.8,0.4,0.8,1.1c0,0.7-0.4,1.1-0.9,1.1c-0.2,0-0.4-0.1-0.6-0.3h0
			l0,0.4v0.7h-0.3V2.6z M23.8,3.6c0-0.5-0.2-0.8-0.5-0.8c-0.2,0-0.4,0.1-0.6,0.3v1c0.2,0.2,0.4,0.2,0.5,0.2
			C23.6,4.5,23.8,4.2,23.8,3.6z"/>
		<path d="M24.8,1.7h0.3v0.8l0,0.5h0c0.2-0.2,0.4-0.4,0.7-0.4c0.5,0,0.7,0.3,0.7,0.8v1.3h-0.3V3.5c0-0.4-0.1-0.6-0.4-0.6
			c-0.2,0-0.4,0.1-0.6,0.4v1.5h-0.3V1.7z"/>
		<path d="M27.1,3.7c0-0.7,0.5-1.1,1-1.1c0.6,0,0.9,0.4,0.9,1c0,0.1,0,0.2,0,0.2h-1.6V3.5h1.5l-0.1,0.1c0-0.5-0.2-0.7-0.6-0.7
			c-0.4,0-0.7,0.3-0.7,0.8c0,0.5,0.3,0.8,0.8,0.8c0.2,0,0.4-0.1,0.6-0.2l0.1,0.2c-0.2,0.1-0.4,0.2-0.8,0.2
			C27.6,4.8,27.1,4.4,27.1,3.7z"/>
		<path d="M29.6,3.7c0-0.7,0.5-1.1,1.1-1.1c0.3,0,0.5,0.1,0.7,0.3l-0.2,0.2C31,3,30.9,2.9,30.7,2.9c-0.4,0-0.8,0.3-0.8,0.8
			c0,0.5,0.3,0.8,0.8,0.8c0.2,0,0.4-0.1,0.6-0.3l0.1,0.2c-0.2,0.2-0.5,0.3-0.8,0.3C30,4.8,29.6,4.4,29.6,3.7z"/>
		<path d="M31.9,5.6L32,5.3c0.1,0,0.1,0,0.2,0c0.3,0,0.4-0.2,0.5-0.4l0.1-0.2l-0.9-2.1h0.3l0.5,1.2c0.1,0.2,0.2,0.4,0.2,0.6h0
			C33,4.2,33.1,4,33.1,3.8l0.4-1.2h0.3L33,4.9c-0.1,0.4-0.4,0.7-0.8,0.7C32.1,5.6,32,5.6,31.9,5.6z"/>
	</g>
</g>
</svg>
